[IMG]http://i981.photobucket.com/albums/ae294/fasamoo/gogo.gif[/IMG]

[IMG]http://i981.photobucket.com/albums/ae294/fasamoo/plot.gif[/IMG]

The psychology of drug addiction mixes with vampire mythology in NIGHT JUNKIES, in which an exotic dancer and her vampire lover roam the seedy back alleys of London in search of victims to feed their blood habit.
 
[IMG]http://i981.photobucket.com/albums/ae294/fasamoo/screenshots.gif[/IMG]

[url=http://www.imgboot.com/image.php?u=fasamoo&i=nightjunkies2007dvdripgogo201001.jpg][img]http://imgboot.com/images/fasamoo/nightjunkies2007dvdripgogo201001.jpg[/img][/url]
[url=http://www.imgboot.com/image.php?u=fasamoo&i=nightjunkies2007dvdripgogo201002.jpg][img]http://imgboot.com/images/fasamoo/nightjunkies2007dvdripgogo201002.jpg[/img][/url]
[url=http://www.imgboot.com/image.php?u=fasamoo&i=nightjunkies2007dvdripgogo201003.jpg][img]http://imgboot.com/images/fasamoo/nightjunkies2007dvdripgogo201003.jpg[/img][/url]
[url=http://www.imgboot.com/image.php?u=fasamoo&i=nightjunkies2007dvdripgogo201004.jpg][img]http://imgboot.com/images/fasamoo/nightjunkies2007dvdripgogo201004.jpg[/img][/url]
[url=http://www.imgboot.com/image.php?u=fasamoo&i=nightjunkies2007dvdripgogo201005.jpg][img]http://imgboot.com/images/fasamoo/nightjunkies2007dvdripgogo201005.jpg[/img][/url]
[url=http://www.imgboot.com/image.php?u=fasamoo&i=nightjunkies2007dvdripgogo20100524.jpg][img]http://imgboot.com/images/fasamoo/nightjunkies2007dvdripgogo20100524.jpg[/img][/url]
[url=http://www.imgboot.com/image.php?u=fasamoo&i=nightjunkies2007dvdripgogo201006.jpg][img]http://imgboot.com/images/fasamoo/nightjunkies2007dvdripgogo201006.jpg[/img][/url]

[IMG]http://i981.photobucket.com/albums/ae294/fasamoo/info.gif[/IMG]

General
Complete name                    : Night.Junkies.2007.DVDRiP.XViDNight Junkies 2007 DVDRiP GoGo.avi
IMDB Link                        : http://www.imdb.com/title/tt0826587/
Format                           : AVI
Format/Info                      : Audio Video Interleave
File size                        : 700 MiB
Duration                         : 1h 38mn
Overall bit rate                 : 997 Kbps
Writing application              : VirtualDubMod 1.5.10.2 (build 2540/release)
Writing library                  : VirtualDubMod build 2540/release

Video
ID                               : 0
Format                           : MPEG-4 Visual
Format profile                   : Advanced Simple@L5
Format settings, BVOP            : Yes
Format settings, QPel            : No
Format settings, GMC             : No warppoints
Format settings, Matrix          : Default (H.263)
Codec ID                         : XVID
Codec ID/Hint                    : XviD
Duration                         : 1h 38mn
Bit rate                         : 853 Kbps
Width                            : 576 pixels
Height                           : 320 pixels
Display aspect ratio             : 16:9
Frame rate                       : 23.976 fps
Resolution                       : 8 bits
Colorimetry                      : 4:2:0
Scan type                        : Progressive
Bits/(Pixel*Frame)               : 0.193
Stream size                      : 599 MiB (86%)
Writing library                  : XviD 1.2.1 (UTC 2008-12-04)

Audio
ID                               : 1
Format                           : MPEG Audio
Format version                   : Version 1
Format profile                   : Layer 3
Mode                             : Joint stereo
Codec ID                         : 55
Codec ID/Hint                    : MP3
Duration                         : 1h 38mn
Bit rate mode                    : Variable
Bit rate                         : 128 Kbps
Channel(s)                       : 2 channels
Sampling rate                    : 48.0 KHz
Stream size                      : 92.0 MiB (13%)
Alignment                        : Aligned on interleaves
Interleave, duration             : 24 ms (0.58 video frame)
Interleave, preload duration     : 221 ms
Writing library                  : LAME3.90.
Encoding settings                : -m j -V 4 -q 2 -lowpass 17.6 --abr 128
Language                         : English
Subtitles                        : English.(.srt)
Genre                            : Horror | Romance | Thriller

[IMG]http://i981.photobucket.com/albums/ae294/fasamoo/pleaseseed.gif[/IMG]